Coordinates
version=1
nRows=14
nColumns=40
inDegrees=yes

Units are S.I. units (second, meters, Newtons, ...)
If the header above contains a line with 'inDegrees', this indicates whether rotational values are in degrees (yes) or radians (no).

endheader
time	pelvis_tilt	pelvis_list	pelvis_rotation	pelvis_tx	pelvis_ty	pelvis_tz	hip_flexion_r	hip_adduction_r	hip_rotation_r	knee_angle_r	knee_angle_r_beta	ankle_angle_r	subtalar_angle_r	mtp_angle_r	hip_flexion_l	hip_adduction_l	hip_rotation_l	knee_angle_l	knee_angle_l_beta	ankle_angle_l	subtalar_angle_l	mtp_angle_l	lumbar_extension	lumbar_bending	lumbar_rotation	arm_flex_r	arm_add_r	arm_rot_r	elbow_flex_r	pro_sup_r	wrist_flex_r	wrist_dev_r	arm_flex_l	arm_add_l	arm_rot_l	elbow_flex_l	pro_sup_l	wrist_flex_l	wrist_dev_l
      0.00000000	    -11.35804876	     -3.20601931	      1.75844336	     -0.36994608	      1.15328143	      0.04472114	     48.54350469	     -4.09621966	     -4.27883443	     44.02513492	      0.76838356	    -19.57588278	     -4.96883931	      0.00000000	     82.78807341	     -7.09603223	     15.04502574	    114.99034914	      2.00696020	     13.48762201	      9.32960772	      0.00000000	    -46.32275370	      1.91599657	      4.52772160	     88.51332337	    -14.47032042	     39.22827195	     20.98104055	     84.15500448	      0.00000000	      0.00000000	     87.24229713	     -3.52988452	     30.32622293	     22.05791885	     85.65189595	      0.00000000	      0.00000000
      0.00833333	    -11.29796046	     -2.93591524	      1.72328368	     -0.36959239	      1.15379875	      0.04443636	     47.34473567	     -4.21136224	     -4.09734389	     43.66487686	      0.76209587	    -19.72178931	     -4.99677509	      0.00000000	     84.21481488	     -6.97234192	     14.67130871	    115.39755393	      2.01406726	     13.71083157	      9.24058693	      0.00000000	    -46.41041372	      1.63350327	      4.36274514	     88.46266055	    -14.45963783	     39.12339268	     20.98391139	     83.95736501	      0.00000000	      0.00000000	     87.21645425	     -3.49777670	     30.33587111	     22.09816129	     85.41841135	      0.00000000	      0.00000000
      0.01666667	    -11.24414387	     -2.56008683	      1.67430207	     -0.36942981	      1.15473744	      0.04373759	     46.25667997	     -4.43404942	     -3.79862775	     43.41168129	      0.75767677	    -20.35684202	     -5.15692119	      0.00000000	     85.45834343	     -6.66259680	     14.27017843	    115.28600597	      2.01212039	     13.87004198	      9.04561174	      0.00000000	    -46.53404584	      1.28487398	      4.12183198	     88.51336253	    -14.39279945	     39.01812671	     20.75653968	     83.98805140	      0.00000000	      0.00000000	     87.33468340	     -3.42642707	     30.53644106	     21.87141650	     85.42104897	      0.00000000	      0.00000000
      0.02500000	    -11.19496041	     -2.37212916	      1.60395351	     -0.36922729	      1.15571471	      0.04323108	     45.40776888	     -4.60228158	     -3.76318196	     43.59962254	      0.76095697	    -20.66662240	     -5.26653909	      0.00000000	     86.61473303	     -6.63430166	     13.88082216	    114.89209050	      2.00524526	     13.69817846	      8.92580582	      0.00000000	    -46.68295067	      1.03504299	      4.00096110	     88.58127683	    -14.33554516	     38.71425652	     20.62370542	     83.82246674	      0.00000000	      0.00000000	     87.49795843	     -3.35216173	     30.71806996	     21.66736712	     85.35679538	      0.00000000	      0.00000000
      0.03333333	    -11.31323784	     -1.80141392	      1.62017909	     -0.36942231	      1.15608532	      0.04173159	     44.97119544	     -5.08981232	     -3.24573973	     44.28878580	      0.77298513	    -20.59375788	     -5.66828121	      0.00000000	     87.62719066	     -6.20732612	     12.93130495	    114.25870567	      1.99419061	     13.70339518	      7.68611927	      0.00000000	    -46.64793010	      0.57777654	      3.56413059	     88.56587221	    -14.36144821	     38.57809937	     20.59859674	     83.91011261	      0.00000000	      0.00000000	     87.60894515	     -3.26294588	     30.63825703	     21.57888891	     85.81718377	      0.00000000	      0.00000000
      0.04166667	    -11.47282640	     -1.82260277	      1.55496468	     -0.36962468	      1.15692427	      0.04223542	     44.73917768	     -4.98602151	     -3.25229122	     45.30131050	      0.79065702	    -20.10227141	     -6.13865999	      0.00000000	     88.68939744	     -6.23738105	     12.66096872	    113.25168977	      1.97661487	     13.31452556	      7.38498809	      0.00000000	    -46.56203824	      0.50631880	      3.58089670	     88.58489542	    -14.21824251	     38.31645915	     20.44326644	     83.45292268	      0.00000000	      0.00000000	     87.72084908	     -3.25632494	     30.92994238	     21.43801349	     85.18513000	      0.00000000	      0.00000000
      0.05000000	    -11.84884261	     -1.55401559	      1.50911297	     -0.37017857	      1.15717859	      0.04173922	     45.01969610	     -5.18234334	     -2.95938184	     46.72601285	      0.81552277	    -19.78204200	     -7.08259451	      0.00000000	     89.65377759	     -6.01995313	     12.02402673	    111.95436327	      1.95397225	     12.86689464	      6.33049026	      0.00000000	    -46.26784393	      0.26126604	      3.38289972	     88.61557248	    -14.25681451	     38.44325174	     20.45962544	     83.85383265	      0.00000000	      0.00000000	     87.75339604	     -3.30978894	     31.12594065	     21.52996419	     85.28845068	      0.00000000	      0.00000000
      0.05833333	    -12.09713796	     -1.55622117	      1.58478091	     -0.37067774	      1.15749381	      0.04145483	     45.26982509	     -5.23128596	     -2.95034410	     48.38184887	      0.84442256	    -19.35236226	     -7.71924448	      0.00000000	     90.31357880	     -5.81263382	     11.73125271	    110.34399452	      1.92586601	     12.36713192	      5.94094699	      0.00000000	    -46.08514257	      0.30043265	      3.31922788	     88.67188582	    -14.24854535	     38.49784642	     20.40003486	     83.73015992	      0.00000000	      0.00000000	     87.85871769	     -3.29884132	     31.45439040	     21.40478034	     85.15606163	      0.00000000	      0.00000000
      0.06666667	    -12.42146674	     -1.44227893	      1.66426588	     -0.37139335	      1.15768716	      0.04104784	     45.84550882	     -5.40854232	     -2.82351011	     50.41411048	      0.87989222	    -18.56829203	     -8.48951739	      0.00000000	     90.71606625	     -5.57143392	     11.16382607	    108.46182405	      1.89301594	     11.81054065	      4.92383638	      0.00000000	    -45.83267842	      0.27164701	      3.14992352	     88.68339356	    -14.20079057	     38.12078409	     20.40945088	     84.00875443	      0.00000000	      0.00000000	     87.90506288	     -3.25271843	     31.09329505	     21.36740565	     85.35580691	      0.00000000	      0.00000000
      0.07500000	    -12.69863495	     -1.59251346	      1.79093482	     -0.37205685	      1.15774983	      0.04086770	     46.48397318	     -5.36044778	     -2.84048979	     52.63929152	      0.91872895	    -18.02269327	     -9.14765748	      0.00000000	     90.90773671	     -5.36615693	     11.00635092	    106.36290928	      1.85638297	     11.11959536	      4.66969503	      0.00000000	    -45.59680285	      0.47287113	      3.15288824	     88.81065315	    -14.19991496	     38.80583783	     20.27371182	     82.94816869	      0.00000000	      0.00000000	     88.08979125	     -3.27204465	     32.20348435	     21.08696893	     84.08475604	      0.00000000	      0.00000000
      0.08333333	    -13.06990531	     -1.62469272	      1.89307193	     -0.37292385	      1.15778798	      0.04052998	     47.43185712	     -5.45362749	     -2.78237681	     55.11128529	      0.96187338	    -17.46538150	     -9.94100406	      0.00000000	     90.84948773	     -5.14363916	     10.69277843	    103.95947122	      1.81443506	     10.33034681	      4.37974372	      0.00000000	    -45.28402816	      0.59924111	      3.08245391	     88.89914091	    -14.19165699	     39.00881220	     20.22994572	     83.11388448	      0.00000000	      0.00000000	     88.09405323	     -3.30814583	     32.15290402	     21.19551288	     84.31637836	      0.00000000	      0.00000000
      0.09166667	    -13.15864829	     -1.96946310	      1.93959077	     -0.37341768	      1.15784709	      0.04051414	     48.22632523	     -5.22612682	     -2.76715056	     57.82370249	      1.00921399	    -16.51146163	    -10.28490811	      0.00000000	     90.35381492	     -5.07601441	     10.80948694	    101.51421956	      1.77175737	      9.85130430	      4.31611961	      0.00000000	    -45.21692060	      0.93177870	      3.33157398	     88.92139461	    -14.12665349	     38.36236167	     20.16052583	     81.94590737	      0.00000000	      0.00000000	     88.14173671	     -3.10418832	     31.65751244	     20.93349284	     83.05273199	      0.00000000	      0.00000000
      0.10000000	    -13.76900438	     -1.71491080	      1.99757195	     -0.37450377	      1.15715164	      0.04002780	     49.89609200	     -5.62160644	     -2.46492154	     60.88500875	      1.06264387	    -15.70222993	    -11.10875457	      0.00000000	     90.03576236	     -4.89939782	     10.18241385	     98.63928586	      1.72158031	      9.19452836	      3.60959636	      0.00000000	    -44.62038256	      0.84587614	      3.04035050	     88.88991733	    -14.12726684	     38.23352497	     20.38179814	     83.85794670	      0.00000000	      0.00000000	     88.03830080	     -3.21716315	     31.02468116	     21.15739349	     85.23846579	      0.00000000	      0.00000000
      0.10833333	    -14.01902819	     -2.08820907	      2.24070412	     -0.37527752	      1.15675384	      0.03986385	     51.11884896	     -5.54011133	     -2.50419580	     63.87512527	      1.11483125	    -14.84816046	    -11.47683959	      0.00000000	     89.26187665	     -4.68108885	     10.38386208	     95.65181916	      1.66943918	      8.19716656	      4.00807607	      0.00000000	    -44.36230315	      1.36114171	      3.14199387	     88.92954074	    -14.14411440	     38.22594550	     20.45785194	     83.82488855	      0.00000000	      0.00000000	     88.07277514	     -3.18320331	     31.01999651	     21.05397163	     85.14500186	      0.00000000	      0.00000000
